<svg width="200" height="200" viewBox="0 0 200 200" xmlns="http://www.w3.org/2000/svg">
  <defs>
    <linearGradient id="orangeGradientDark" x1="0%" y1="0%" x2="100%" y2="100%">
      <stop offset="0%" style="stop-color:#FF6A00;stop-opacity:1" />
      <stop offset="100%" style="stop-color:#FFA733;stop-opacity:1" />
    </linearGradient>
  </defs>
  
  <!-- Infinity symbol (background) -->
  <path d="M 40 100 Q 40 70, 60 70 Q 80 70, 100 100 Q 120 130, 140 130 Q 160 130, 160 100 Q 160 70, 140 70 Q 120 70, 100 100 Q 80 130, 60 130 Q 40 130, 40 100 Z" 
        fill="none" stroke="url(#orangeGradientDark)" stroke-width="3" opacity="0.4"/>
  
  <!-- Central node (core) -->
  <circle cx="100" cy="100" r="20" fill="url(#orangeGradientDark)"/>
  <circle cx="100" cy="100" r="15" fill="#FFFFFF"/>
  
  <!-- Orbiting nodes (network) -->
  <circle cx="60" cy="70" r="8" fill="url(#orangeGradientDark)"/>
  <circle cx="140" cy="70" r="8" fill="url(#orangeGradientDark)"/>
  <circle cx="60" cy="130" r="8" fill="url(#orangeGradientDark)"/>
  <circle cx="140" cy="130" r="8" fill="url(#orangeGradientDark)"/>
  
  <!-- Connection lines -->
  <line x1="100" y1="100" x2="60" y2="70" stroke="#FF6A00" stroke-width="2" opacity="0.6"/>
  <line x1="100" y1="100" x2="140" y2="70" stroke="#FF6A00" stroke-width="2" opacity="0.6"/>
  <line x1="100" y1="100" x2="60" y2="130" stroke="#FF6A00" stroke-width="2" opacity="0.6"/>
  <line x1="100" y1="100" x2="140" y2="130" stroke="#FF6A00" stroke-width="2" opacity="0.6"/>
  
  <!-- Container grid (small rectangles around the edge) -->
  <rect x="30" y="30" width="12" height="12" fill="none" stroke="#FFFFFF" stroke-width="1.5" opacity="0.7"/>
  <rect x="158" y="30" width="12" height="12" fill="none" stroke="#FFFFFF" stroke-width="1.5" opacity="0.7"/>
  <rect x="30" y="158" width="12" height="12" fill="none" stroke="#FFFFFF" stroke-width="1.5" opacity="0.7"/>
  <rect x="158" y="158" width="12" height="12" fill="none" stroke="#FFFFFF" stroke-width="1.5" opacity="0.7"/>
</svg>